Coordinates
version=1
nRows=5
nColumns=40
inDegrees=yes

Units are S.I. units (second, meters, Newtons, ...)
If the header above contains a line with 'inDegrees', this indicates whether rotational values are in degrees (yes) or radians (no).

endheader
time	pelvis_tilt	pelvis_list	pelvis_rotation	pelvis_tx	pelvis_ty	pelvis_tz	hip_flexion_r	hip_adduction_r	hip_rotation_r	knee_angle_r	knee_angle_r_beta	ankle_angle_r	subtalar_angle_r	mtp_angle_r	hip_flexion_l	hip_adduction_l	hip_rotation_l	knee_angle_l	knee_angle_l_beta	ankle_angle_l	subtalar_angle_l	mtp_angle_l	lumbar_extension	lumbar_bending	lumbar_rotation	arm_flex_r	arm_add_r	arm_rot_r	elbow_flex_r	pro_sup_r	wrist_flex_r	wrist_dev_r	arm_flex_l	arm_add_l	arm_rot_l	elbow_flex_l	pro_sup_l	wrist_flex_l	wrist_dev_l
      3.95833300	     -2.50328678	     -0.95979588	      3.90887062	      0.76621111	      1.06624663	     -0.47657826	     -5.31366975	      3.63556739	      2.48758877	      9.29773072	      0.16227601	      7.30750339	      0.00000000	      0.00000000	     30.71204886	     -1.68371776	      2.98676138	     27.36552566	      0.47761852	     -6.00889588	      0.00000000	      0.00000000	     -8.46906489	      1.76425196	      0.44577988	     -2.80657720	    -16.03947701	     -3.61549491	     52.54202835	     46.07406831	      0.00000000	      0.00000000	     -4.66063826	    -12.18240255	     -5.36629341	     34.30976462	     54.57567208	      0.00000000	      0.00000000
      3.96666700	     -2.63669044	     -1.01870447	      3.76773204	      0.76588106	      1.06498201	     -0.47682703	     -6.14793781	      3.70151013	      2.74807440	      8.60104654	      0.15011658	      7.21525098	      0.00000000	      0.00000000	     30.47625202	     -1.71218946	      2.93435173	     24.38224884	      0.42555052	     -6.33957278	      0.00000000	      0.00000000	     -8.37351533	      1.79608442	      0.71683979	     -2.71212651	    -16.23563140	     -3.42353576	     53.23363414	     46.04605860	      0.00000000	      0.00000000	     -4.85841533	    -12.10901184	     -5.85186552	     33.99357189	     54.55156703	      0.00000000	      0.00000000
      3.97500000	     -2.47845119	     -1.02443376	      3.65125728	      0.76594613	      1.06399098	     -0.47727814	     -7.37766329	      3.70948072	      2.86298539	      7.79426282	      0.13603555	      7.00896477	      0.00000000	      0.00000000	     29.85761569	     -1.70637574	      2.68388319	     21.50467903	      0.37532745	     -6.48986294	      0.00000000	      0.00000000	     -8.57868038	      1.81283466	      0.88381505	     -2.54569701	    -16.43600914	     -3.27273087	     53.79066951	     45.87412168	      0.00000000	      0.00000000	     -5.13528032	    -12.02618487	     -6.45739192	     33.77408978	     54.65695780	      0.00000000	      0.00000000
      3.98333300	     -2.76762081	     -1.15762807	      3.45007112	      0.76577969	      1.06225849	     -0.47751584	     -7.92357620	      3.81945991	      3.12906291	      7.35660057	      0.12839690	      7.03150935	      0.00000000	      0.00000000	     29.80187848	     -1.83271289	      2.54804430	     18.88759462	      0.32965071	     -6.69295602	      0.00000000	      0.00000000	     -8.26653273	      1.91181475	      1.18604013	     -2.50932207	    -16.61790059	     -3.08111660	     54.37457426	     45.79976995	      0.00000000	      0.00000000	     -5.42279802	    -11.99863825	     -6.86555431	     33.55926748	     54.70200519	      0.00000000	      0.00000000
      3.99166700	     -2.91580645	     -1.21237675	      3.21417390	      0.76572063	      1.06073505	     -0.47799526	     -8.60480132	      3.82460579	      3.35079802	      6.96033203	      0.12148071	      6.99855183	      0.00000000	      0.00000000	     29.52099481	     -1.89945342	      2.28436903	     16.35290273	      0.28541199	     -6.87490824	      0.00000000	      0.00000000	     -8.12980727	      1.95719582	      1.49919089	     -2.41973008	    -16.79041899	     -2.95426077	     54.83425006	     45.68631689	      0.00000000	      0.00000000	     -5.67539000	    -11.91241789	     -7.33622530	     33.30709675	     54.79130746	      0.00000000	      0.00000000
